 <svg version="1.0" xmlns="http://www.w3.org/2000/svg" width="700.000000pt" height="415.000000pt" viewBox="0 0 700.000000 415.000000" preserveAspectRatio="xMidYMid meet">
<metadata>
Created by potrace 1.12, written by Peter Selinger 2001-2015
</metadata>
<g transform="translate(0.000000,415.000000) scale(0.100000,-0.100000)" fill="#000000" stroke="none">
<path d="M4887 3719 c-84 -20 -181 -88 -237 -167 l-40 -55 0 103 0 103 -1362
-7 c-750 -4 -1366 -11 -1370 -14 -7 -8 -38 -1023 -31 -1034 2 -5 22 -8 44 -8
l41 0 -6 -37 c-3 -21 -26 -182 -52 -358 -25 -176 -56 -383 -69 -460 l-23 -140
-1 135 c-1 154 -15 224 -63 310 l-31 56 32 44 c70 97 89 244 93 730 2 292 -7
355 -69 480 -65 132 -164 205 -343 252 -81 22 -102 23 -490 23 l-405 0 -12
-405 c-6 -223 -11 -456 -12 -517 l-1 -113 59 0 c33 0 62 -3 64 -7 5 -10 -22
-984 -28 -1000 -3 -9 -25 -13 -64 -13 l-59 0 -6 -72 c-6 -81 -26 -803 -26
-941 l0 -88 398 4 c441 4 457 6 602 75 57 26 94 54 153 113 l79 78 -3 -132 -3
-132 74 -2 c41 -2 507 0 1035 5 l960 7 5 105 5 105 13 -80 c7 -44 15 -93 19
-109 l5 -29 309 5 c170 3 311 7 313 9 3 3 12 243 21 534 8 292 22 764 30 1050
9 286 20 524 25 529 5 5 16 6 25 3 13 -5 15 -18 10 -69 -9 -120 -30 -1005 -30
-1288 1 -257 3 -294 23 -380 66 -286 224 -421 477 -408 80 4 102 10 166 41
l74 36 20 -24 c21 -25 21 -25 207 -25 l186 0 6 127 c3 71 11 319 17 553 5 234
12 431 14 438 3 7 23 12 53 12 49 0 49 0 56 38 3 20 6 107 7 192 1 85 4 184 8
220 6 60 7 51 24 -120 10 -102 27 -272 38 -379 10 -107 19 -196 19 -198 0 -2
-22 -3 -50 -3 -27 0 -50 -1 -51 -2 -4 -14 -25 -865 -21 -872 7 -12 565 3 573
15 3 6 9 142 13 302 3 161 9 352 13 425 l6 132 -47 0 c-42 0 -46 2 -46 24 0
13 30 215 66 448 l66 423 18 615 c11 338 19 652 19 698 l1 82 -303 0 -304 0
-6 -147 c-4 -82 -11 -339 -17 -573 -6 -234 -13 -458 -16 -498 l-6 -73 -46 3
-47 3 3 95 c10 321 32 1112 32 1148 l0 42 -229 0 c-134 0 -240 -4 -258 -11
-24 -8 -43 -6 -91 10 -65 22 -174 27 -245 10z m224 -150 c34 -17 81 -61 127
-119 l20 -25 7 73 8 73 146 -3 146 -3 0 -105 c0 -58 -7 -322 -15 -586 l-13
-482 -36 -6 c-20 -3 -91 -6 -158 -6 l-121 0 -4 178 c-4 225 -21 265 -110 265
-60 0 -101 -47 -117 -134 -14 -77 -45 -973 -36 -1044 15 -121 45 -165 110
-165 84 0 120 63 132 233 l6 87 -66 0 c-36 0 -69 5 -72 11 -4 5 -4 113 0 240
l8 229 283 0 284 0 0 -92 c0 -51 -3 -157 -7 -235 l-6 -143 -54 0 c-29 0 -53
-1 -53 -2 -2 -28 -30 -996 -30 -1050 l0 -78 -87 0 -88 0 -38 60 -38 60 -62
-53 c-93 -79 -151 -100 -256 -95 -101 5 -148 26 -205 89 -45 49 -69 100 -93
195 -28 112 -24 659 12 1714 14 400 27 555 56 663 31 115 97 210 173 249 76
39 178 42 247 7z m1169 -23 c0 -72 -30 -1102 -34 -1161 -4 -62 -66 -481 -113
-765 l-18 -105 -62 -3 -62 -3 -5 43 c-3 24 -15 138 -26 253 -11 116 -27 284
-35 375 -16 156 -15 449 0 720 2 41 7 209 11 373 l7 297 168 0 169 0 0 -24z
m-3389 -361 c-6 -170 -11 -329 -11 -352 l0 -43 -49 0 c-28 0 -53 -4 -56 -10
-3 -5 3 -114 14 -242 11 -128 34 -399 51 -603 40 -487 31 -443 88 -447 26 -2
47 -7 47 -13 0 -5 -4 -149 -8 -320 -4 -171 -10 -349 -13 -396 l-6 -87 -275 -7
c-153 -4 -278 -3 -282 1 -8 8 0 365 15 692 l6 132 56 0 55 0 -6 107 c-4 58 -7
124 -7 145 l0 39 -137 -3 -138 -3 -17 -115 c-26 -180 -28 -170 38 -170 l56 0
-7 -272 c-4 -150 -10 -336 -14 -413 l-6 -140 -249 -3 -249 -2 7 272 c3 150 9
337 13 415 l6 142 46 3 46 3 27 185 c27 185 85 584 133 908 14 96 25 178 25
182 0 5 -24 10 -52 12 -49 3 -53 5 -52 28 1 14 5 174 8 355 4 182 9 342 12
357 l6 28 441 2 442 3 3 -30 c2 -16 -1 -169 -7 -340z m843 263 c10 -62 26
-169 36 -238 32 -204 77 -507 120 -800 22 -151 56 -376 75 -500 19 -124 35
-237 35 -252 0 -16 4 -28 9 -28 5 0 11 107 15 238 4 130 9 287 11 347 3 61 7
215 11 343 l6 232 -57 0 -58 0 7 173 c3 94 9 268 12 385 l7 212 255 0 254 0
-6 -102 c-3 -57 -8 -228 -12 -380 -6 -247 -8 -278 -23 -279 -9 0 -37 -1 -63
-1 l-47 0 -5 -42 c-3 -22 -8 -162 -11 -311 -3 -148 -10 -405 -15 -570 -5 -165
-14 -493 -20 -730 -6 -236 -13 -440 -16 -452 -4 -23 -6 -23 -188 -23 -182 0
-184 0 -189 23 -3 12 -24 144 -46 292 -23 149 -57 374 -76 500 -19 127 -49
318 -65 425 -16 107 -48 314 -70 460 -22 146 -48 317 -57 380 -9 63 -19 119
-23 123 -8 9 -16 -207 -30 -788 -5 -236 -12 -465 -15 -507 -6 -86 -9 -82 64
-78 l44 2 -7 -318 c-3 -176 -9 -363 -13 -416 l-6 -98 -247 0 c-189 0 -249 3
-252 12 -4 13 20 799 25 804 1 2 28 4 60 5 32 1 60 6 63 10 4 6 26 713 36
1159 l3 125 -64 3 -64 3 7 312 c3 172 9 345 13 385 l6 72 277 0 278 0 16 -112z
m-2400 76 c211 -40 302 -134 336 -347 10 -62 10 -148 1 -423 -10 -295 -15
-354 -32 -410 -26 -83 -70 -133 -151 -169 l-62 -28 60 -27 c72 -32 118 -84
140 -155 16 -55 17 -280 3 -646 -10 -281 -42 -394 -144 -507 -56 -62 -158
-116 -260 -137 -71 -14 -142 -17 -479 -16 l-189 1 7 237 c3 131 9 316 13 411
l6 172 63 0 62 0 6 93 c3 50 10 283 16 517 6 234 13 485 16 558 l6 132 -67 0
-68 0 7 263 c3 144 9 315 13 379 l6 118 166 3 c235 5 433 -2 525 -19z m1781
-1186 c-4 -172 -10 -401 -14 -508 l-6 -195 -43 -3 c-28 -2 -44 1 -47 10 -4 12
-85 955 -85 991 0 15 13 17 101 17 l102 0 -8 -312z m3078 -1250 c-3 -106 -8
-240 -11 -298 l-7 -105 -150 0 -150 0 0 25 c0 91 17 555 21 562 3 4 72 8 153
8 l149 0 -5 -192z"></path>
<path d="M2396 3008 c-3 -24 -13 -92 -21 -153 -8 -60 -31 -236 -50 -390 -20
-154 -38 -292 -41 -307 l-6 -28 96 0 96 0 0 39 c0 21 -6 130 -14 242 -8 112
-20 302 -27 422 -12 210 -22 262 -33 175z"></path>
<path d="M1086 2551 c-3 -128 -4 -236 -1 -241 10 -16 101 -12 144 6 58 23 66
54 66 251 0 156 -1 163 -23 185 -19 19 -35 23 -101 26 l-78 4 -7 -231z"></path>
<path d="M1104 1952 l-31 -3 -6 -112 c-4 -62 -7 -168 -7 -236 l0 -124 70 5
c122 9 135 30 146 233 7 135 -4 197 -39 219 -24 15 -85 23 -133 18z"></path>
</g>
</svg>